<?xml version="1.0" encoding="UTF-8"?>
<svg xmlns="http://www.w3.org/2000/svg" width="39" height="37" viewBox="0 0 39 37" fill="none">
  <path d="M25.4006 9.09942C25.4005 10.0547 25.0197 10.9712 24.3414 11.6491C22.7798 13.2113 21.2646 14.8401 19.6438 16.3451C19.4628 16.5087 19.2255 16.5971 18.9808 16.5921C18.736 16.5871 18.5026 16.489 18.3286 16.3182L13.6598 11.6507C12.9807 10.9725 12.5996 10.0554 12.5996 9.09942C12.5996 8.14346 12.9807 7.22632 13.6598 6.54818C13.9984 6.20968 14.4012 5.94102 14.845 5.75768C15.2888 5.57435 15.7647 5.47996 16.2454 5.47996C16.7261 5.47996 17.202 5.57435 17.6458 5.75768C18.0895 5.94102 18.4924 6.20968 18.831 6.54818L19.0006 6.71805L19.1702 6.54818C19.6785 6.03835 20.3282 5.69014 21.0366 5.54788C21.7451 5.40562 22.4801 5.47574 23.1482 5.74932C23.8163 6.0229 24.3873 6.48757 24.7884 7.08415C25.1895 7.68074 25.4026 8.38227 25.4006 9.09942Z" fill="white" stroke="#4B234B" stroke-width="2" stroke-linejoin="round"></path>
  <path d="M28.5996 30.8809L34.718 24.81C34.8981 24.6315 34.9994 24.3894 34.9996 24.1368V15.7989C34.9996 15.1673 34.7468 14.5616 34.2967 14.115C33.8466 13.6684 33.2361 13.4175 32.5996 13.4175C31.9631 13.4175 31.3526 13.6684 30.9026 14.115C30.4525 14.5616 30.1996 15.1673 30.1996 15.7989V22.943" fill="white"></path>
  <path d="M28.5996 30.8809L34.718 24.81C34.8981 24.6315 34.9994 24.3894 34.9996 24.1368V15.7989C34.9996 15.1673 34.7468 14.5616 34.2967 14.115C33.8466 13.6684 33.2361 13.4175 32.5996 13.4175C31.9631 13.4175 31.3526 13.6684 30.9026 14.115C30.4525 14.5616 30.1996 15.1673 30.1996 15.7989V22.943" stroke="#4B234B" stroke-width="2" stroke-linecap="round" stroke-linejoin="round"></path>
  <path d="M28.6001 24.5306L29.9729 23.1684C30.0453 23.0972 30.1027 23.0123 30.1417 22.9188C30.1807 22.8253 30.2005 22.7251 30.2001 22.6239C30.1989 22.4813 30.1584 22.3418 30.0827 22.2205C30.0071 22.0993 29.8994 22.001 29.7713 21.9364L29.0625 21.5856C28.462 21.2877 27.7822 21.1847 27.1195 21.2913C26.4568 21.3978 25.8446 21.7085 25.3697 22.1793L23.9376 23.6002C23.3375 24.1955 23.0002 25.003 23 25.8451V30.8809M9.40002 30.8809L3.2816 24.81C3.10151 24.6315 3.00022 24.3894 3 24.1368V15.7989C3 15.1673 3.25286 14.5616 3.70295 14.115C4.15303 13.6684 4.76348 13.4175 5.40001 13.4175C6.03653 13.4175 6.64698 13.6684 7.09707 14.115C7.54715 14.5616 7.80001 15.1673 7.80001 15.7989V22.943" fill="white"></path>
  <path d="M28.6001 24.5306L29.9729 23.1684C30.0453 23.0972 30.1027 23.0123 30.1417 22.9188C30.1807 22.8253 30.2005 22.7251 30.2001 22.6239C30.1989 22.4813 30.1584 22.3418 30.0827 22.2205C30.0071 22.0993 29.8994 22.001 29.7713 21.9364L29.0625 21.5856C28.462 21.2877 27.7822 21.1847 27.1195 21.2913C26.4568 21.3978 25.8446 21.7085 25.3697 22.1793L23.9376 23.6002C23.3375 24.1955 23.0002 25.003 23 25.8451V30.8809M9.40002 30.8809L3.2816 24.81C3.10151 24.6315 3.00022 24.3894 3 24.1368V15.7989C3 15.1673 3.25286 14.5616 3.70295 14.115C4.15303 13.6684 4.76348 13.4175 5.40001 13.4175C6.03653 13.4175 6.64698 13.6684 7.09707 14.115C7.54715 14.5616 7.80001 15.1673 7.80001 15.7989V22.943" stroke="#4B234B" stroke-width="2" stroke-linecap="round" stroke-linejoin="round"></path>
  <path d="M9.40078 24.5307L8.02798 23.1685C7.88463 23.0227 7.80328 22.8277 7.80078 22.624C7.80078 22.3335 7.96718 22.0683 8.22958 21.9366L8.93838 21.5857C9.53888 21.2878 10.2186 21.1848 10.8813 21.2914C11.5441 21.3979 12.1562 21.7086 12.6312 22.1795L14.0632 23.6003C14.6634 24.1957 15.0006 25.0031 15.0008 25.8452V30.881" fill="white"></path>
  <path d="M9.40078 24.5307L8.02798 23.1685C7.88463 23.0227 7.80328 22.8277 7.80078 22.624C7.80078 22.3335 7.96718 22.0683 8.22958 21.9366L8.93838 21.5857C9.53888 21.2878 10.2186 21.1848 10.8813 21.2914C11.5441 21.3979 12.1562 21.7086 12.6312 22.1795L14.0632 23.6003C14.6634 24.1957 15.0006 25.0031 15.0008 25.8452V30.881" stroke="#4B234B" stroke-width="2" stroke-linecap="round" stroke-linejoin="round"></path>
</svg>
