<?xml version="1.0" encoding="UTF-8"?>
<svg xmlns="http://www.w3.org/2000/svg" width="36" height="37" viewBox="0 0 36 37" fill="none">
  <path d="M31.1406 15.2621V23.4047M30.3534 16.5134C30.5964 16.4062 30.8026 16.2301 30.9464 16.0069C31.0903 15.7837 31.1655 15.5232 31.1627 15.2577C31.16 14.9922 31.0794 14.7333 30.931 14.5131C30.7825 14.2929 30.5728 14.1211 30.3277 14.019L18.6959 8.72084C18.3423 8.55954 17.9581 8.47607 17.5695 8.47607C17.1808 8.47607 16.7967 8.55954 16.4431 8.72084L4.81267 14.0136C4.57106 14.1194 4.36552 14.2933 4.22119 14.5141C4.07686 14.7349 4 14.9929 4 15.2567C4 15.5204 4.07686 15.7785 4.22119 15.9993C4.36552 16.22 4.57106 16.394 4.81267 16.4998L16.4431 21.8034C16.7967 21.9647 17.1808 22.0481 17.5695 22.0481C17.9581 22.0481 18.3423 21.9647 18.6959 21.8034L30.3534 16.5134Z" stroke="white" stroke-width="2" stroke-linecap="round" stroke-linejoin="round"></path>
  <path d="M9.42676 18.6548V23.4047C9.42676 24.4844 10.2846 25.52 11.8117 26.2835C13.3387 27.047 15.4098 27.476 17.5694 27.476C19.729 27.476 21.8001 27.047 23.3271 26.2835C24.8542 25.52 25.7121 24.4844 25.7121 23.4047V18.6548" stroke="white" stroke-width="2" stroke-linecap="round" stroke-linejoin="round"></path>
</svg>
