<?xml version="1.0" encoding="UTF-8"?>
<svg xmlns="http://www.w3.org/2000/svg" width="23" height="24" viewBox="0 0 23 24" fill="none">
  <g clip-path="url(#clip0_2022_96)">
    <path fill-rule="evenodd" clip-rule="evenodd" d="M6.98214 9.44136C6.98214 7.58958 7.71776 5.81364 9.02717 4.50423C10.3366 3.19483 12.1125 2.45921 13.9643 2.45921C15.8161 2.45921 17.592 3.19483 18.9014 4.50423C20.2108 5.81364 20.9464 7.58958 20.9464 9.44136C20.9464 11.2931 20.2108 13.0691 18.9014 14.3785C17.592 15.6879 15.8161 16.4235 13.9643 16.4235C12.1125 16.4235 10.3366 15.6879 9.02717 14.3785C7.71776 13.0691 6.98214 11.2931 6.98214 9.44136ZM14.3684 18.4689C13.7867 20.1124 12.643 21.4977 11.1393 22.38C9.6356 23.2624 7.86851 23.5852 6.14995 23.2915C4.43138 22.9977 2.87184 22.1063 1.7466 20.7745C0.621362 19.4427 0.00276498 17.7563 4.64502e-07 16.0128C-0.000542015 14.482 0.474088 12.9889 1.35837 11.7394C2.24266 10.4899 3.49299 9.54576 4.93679 9.03721C5.01502 7.28621 5.60083 5.59575 6.62285 4.17181C7.64487 2.74787 9.05898 1.65192 10.6929 1.01749C12.3268 0.38305 14.1099 0.237523 15.8251 0.598634C17.5402 0.959746 19.1133 1.81191 20.3527 3.05129C21.5921 4.29067 22.4443 5.86377 22.8054 7.57892C23.1665 9.29406 23.0209 11.0772 22.3865 12.7111C21.7521 14.345 20.6561 15.7591 19.2322 16.7811C17.8082 17.8032 16.1178 18.389 14.3668 18.4672M14.9976 4.62121C14.9976 4.34889 14.8895 4.08772 14.6969 3.89517C14.5043 3.70261 14.2432 3.59443 13.9709 3.59443C13.6985 3.59443 13.4374 3.70261 13.2448 3.89517C13.0522 4.08772 12.9441 4.34889 12.9441 4.62121V5.08121C12.3515 5.15011 11.8025 5.42687 11.3947 5.86232C10.9869 6.29776 10.7466 6.86369 10.7167 7.45953C10.6867 8.05537 10.869 8.64254 11.2311 9.11668C11.5932 9.59082 12.1117 9.92124 12.6944 10.0492L14.6674 10.4813C14.8223 10.5168 14.9588 10.6078 15.051 10.7372C15.1432 10.8666 15.1847 11.0253 15.1677 11.1833C15.1507 11.3413 15.0763 11.4875 14.9587 11.5943C14.841 11.7011 14.6883 11.761 14.5294 11.7627H13.4123C13.2783 11.7626 13.1476 11.721 13.0381 11.6437C12.9287 11.5663 12.8459 11.457 12.8011 11.3306C12.7597 11.1993 12.6922 11.0776 12.6027 10.9729C12.5132 10.8682 12.4036 10.7825 12.2804 10.721C12.1571 10.6596 12.0227 10.6235 11.8853 10.615C11.7478 10.6065 11.61 10.6258 11.4801 10.6717C11.3502 10.7175 11.2309 10.7891 11.1293 10.882C11.0276 10.9749 10.9457 11.0874 10.8883 11.2126C10.831 11.3379 10.7995 11.4734 10.7956 11.6111C10.7918 11.7487 10.8157 11.8858 10.8659 12.0141C11.1846 12.9209 11.9748 13.606 12.9441 13.7752V14.2582C12.9441 14.5305 13.0522 14.7917 13.2448 14.9843C13.4374 15.1768 13.6985 15.285 13.9709 15.285C14.2432 15.285 14.5043 15.1768 14.6969 14.9843C14.8895 14.7917 14.9976 14.5305 14.9976 14.2582V13.7752C15.614 13.6665 16.1736 13.3473 16.5808 12.872C16.988 12.3967 17.2176 11.7948 17.2304 11.169C17.2432 10.5433 17.0384 9.93247 16.6509 9.44091C16.2635 8.94934 15.7175 8.60749 15.1061 8.47371L13.1346 8.04493C13.021 8.02124 12.9201 7.95614 12.8517 7.86228C12.7834 7.76843 12.7523 7.65251 12.7646 7.53703C12.7769 7.42155 12.8316 7.31476 12.9182 7.23739C13.0048 7.16002 13.1171 7.1176 13.2332 7.11836H14.5311C14.6654 7.11724 14.7966 7.15835 14.9063 7.23588C15.016 7.31341 15.0985 7.42344 15.1422 7.55043C15.2393 7.79846 15.4289 7.99907 15.6711 8.1099C15.9133 8.22073 16.1891 8.2331 16.4403 8.14441C16.6914 8.05571 16.8983 7.8729 17.0172 7.63455C17.1361 7.39621 17.1577 7.12099 17.0775 6.867C16.9176 6.41585 16.641 6.01509 16.276 5.70546C15.911 5.39584 15.4705 5.18839 14.9993 5.10421L14.9976 4.62121Z" fill="white"></path>
  </g>
  <defs>
    <clipPath id="clip0_2022_96">
      <rect width="23" height="23" fill="white" transform="translate(0 0.405762)"></rect>
    </clipPath>
  </defs>
</svg>
