<?xml version="1.0" encoding="UTF-8"?>
<svg xmlns="http://www.w3.org/2000/svg" width="22" height="29" viewBox="0 0 22 29" fill="none">
  <path d="M3.58802 10.7283L3.58531 10.7311L3.57989 10.7353L3.56634 10.7465C3.50753 10.7926 3.45057 10.8412 3.39561 10.8921C3.25375 11.0219 3.11722 11.1578 2.98639 11.2995C2.66118 11.6537 2.24384 12.1801 1.85224 12.8843C1.06361 14.3053 0.401008 16.4235 0.773639 19.2557C1.14085 22.0515 2.27771 24.3881 4.19913 26.0177C6.11514 27.6417 8.70865 28.4761 11.8455 28.4761C15.08 28.4761 17.6626 27.2231 19.3713 25.0741C21.0651 22.9447 21.8212 20.0397 21.641 16.8645C21.4675 13.8181 19.8618 11.5067 18.4431 9.46547L18.038 8.88167C16.4905 6.62487 15.2697 4.54587 15.5664 1.63667C15.5814 1.49026 15.5665 1.34221 15.5225 1.20216C15.4785 1.0621 15.4066 0.933161 15.3112 0.823713C15.2159 0.714266 15.0994 0.626755 14.9692 0.566864C14.839 0.506973 14.6981 0.47604 14.5556 0.476074C14.0379 0.476074 13.4444 0.641274 12.8726 0.890474C12.2105 1.18379 11.5857 1.55993 11.0122 2.01047C9.75879 2.98767 8.50539 4.46047 7.83737 6.42887C7.1707 8.39167 7.50945 10.2621 7.99726 11.6243C8.3184 12.5189 7.97016 13.4023 7.44577 13.6599C7.22264 13.7689 6.96735 13.7847 6.73326 13.7038C6.49918 13.6229 6.3044 13.4517 6.18966 13.2259L5.09751 11.0825C5.02916 10.948 4.93339 10.8305 4.8168 10.738C4.70021 10.6454 4.56559 10.5802 4.42221 10.5466C4.27884 10.5131 4.13013 10.5121 3.98635 10.5437C3.84256 10.5753 3.70712 10.6387 3.58937 10.7297" fill="#4B234B"></path>
</svg>
