<?xml version="1.0" encoding="UTF-8"?>
<svg xmlns="http://www.w3.org/2000/svg" width="36" height="37" viewBox="0 0 36 37" fill="none">
  <path d="M17.627 8.47607C18.1211 8.47618 18.6377 8.81734 19.0957 9.27783L19.0977 9.27979C19.5752 9.75731 20.0624 10.4355 20.499 11.2573V11.2583C21.1381 12.4783 21.5897 13.7876 21.8389 15.1421L22.084 16.4741L23.2852 15.8481C24.0417 15.454 24.8386 15.1428 25.6621 14.9204C26.2739 14.7603 26.831 14.6832 27.291 14.6938C27.6779 14.7033 28.0568 14.7752 28.3262 14.9731L28.4355 15.0659C28.6713 15.3038 28.8016 15.7083 28.8066 16.2612L28.8008 16.5083C28.7729 17.0343 28.6489 17.6628 28.4307 18.3452L28.3311 18.6411C28.0277 19.5048 27.571 20.4646 26.9521 21.4243L26.2803 22.4653L27.4395 22.9028C27.9614 23.0996 28.4642 23.3439 28.9404 23.6343V23.6353C29.322 23.8722 29.6708 24.1384 29.916 24.4263C30.1557 24.7077 30.2539 24.9563 30.2539 25.1909C30.2539 25.529 30.0757 25.8797 29.6367 26.2642C29.3064 26.5535 28.8915 26.8038 28.4697 27.019L28.0479 27.2231C26.7691 27.8115 25.0136 28.2788 23.0771 28.2788C21.12 28.2788 19.3429 27.8018 18.0508 27.1968L17.627 26.9985L17.2031 27.1968C15.9109 27.8019 14.1331 28.2788 12.1758 28.2788C10.4813 28.2788 8.92604 27.9207 7.70703 27.437L7.20605 27.2231L6.78418 27.019C6.36231 26.8038 5.94758 26.5535 5.61719 26.2642C5.17816 25.8796 5.00003 25.529 5 25.1909C5 24.9573 5.0969 24.7084 5.33691 24.4263C5.58075 24.1398 5.92698 23.8746 6.30566 23.6382C6.78405 23.3464 7.28904 23.1002 7.81348 22.9028L8.97363 22.4663L8.30176 21.4243C7.68262 20.4643 7.22506 19.5066 6.92188 18.6421V18.6411C6.64148 17.8428 6.48394 17.1088 6.45215 16.5093C6.41641 15.8271 6.54882 15.3378 6.81836 15.0659C7.05439 14.8305 7.41502 14.7301 7.79785 14.7017L7.96289 14.6938C8.42144 14.6833 8.97654 14.7594 9.58594 14.9185C10.4116 15.141 11.2104 15.453 11.9688 15.8481L13.166 16.4722L13.4141 15.145C13.692 13.6562 14.186 12.3283 14.75 11.2642C15.1891 10.4391 15.6783 9.75788 16.1562 9.27881C16.6162 8.81766 17.134 8.47607 17.627 8.47607Z" stroke="white" stroke-width="2"></path>
</svg>
