<?xml version="1.0" encoding="UTF-8"?>
<svg xmlns="http://www.w3.org/2000/svg" width="36" height="37" viewBox="0 0 36 37" fill="none">
  <path d="M18 5.47607C18.1072 5.47607 18.209 5.49869 18.3086 5.54443L18.3301 5.5542L28.5293 9.94775H28.5312C29.3811 10.3125 30.0033 11.1594 30 12.1694C29.9737 17.4689 27.8186 26.9565 18.9932 31.2466H18.9922C18.3639 31.552 17.6361 31.552 17.0078 31.2466L16.9883 31.2378L16.9697 31.229L16.5527 31.0415C7.90857 27.0028 6.02614 17.434 6 12.1694C5.99671 11.1594 6.61885 10.3125 7.46875 9.94775H7.4707L17.6699 5.5542L17.6914 5.54443C17.791 5.49869 17.8928 5.47607 18 5.47607ZM20.7461 12.2739C19.7411 12.274 18.7696 12.6275 17.999 13.27C17.2317 12.6336 16.2621 12.274 15.2539 12.2739C14.2254 12.2739 12.9025 12.4525 11.9385 13.147C11.4289 13.5141 11.0073 14.0361 10.8213 14.7349C10.6477 15.3872 10.7055 16.1011 10.9512 16.856C11.0269 18.011 11.701 19.0782 12.1143 19.6274L12.1543 19.6802L12.2012 19.728L16.6064 24.1997C16.9716 24.7303 17.5736 24.8655 17.9893 24.8521C18.4551 24.8369 18.9628 24.6477 19.3301 24.2749L23.8096 19.728L23.8125 19.7241C24.6116 18.9057 25.0664 17.7978 25.0664 16.645C25.0664 14.2418 23.1423 12.2739 20.7461 12.2739Z" stroke="white" stroke-width="2"></path>
</svg>
