<?xml version="1.0" encoding="UTF-8"?>
<svg xmlns="http://www.w3.org/2000/svg" width="36" height="37" viewBox="0 0 36 37" fill="none">
  <path d="M23.4447 20.0317C22.0007 20.0317 20.6159 20.6053 19.5949 21.6264C18.5738 22.6474 18.0002 24.0322 18.0002 25.4762M18.0002 25.4762V27.0317M18.0002 25.4762C18.0002 24.0322 17.4266 22.6474 16.4056 21.6264C15.3845 20.6053 13.9997 20.0317 12.5558 20.0317M18.0002 27.0317C18.0002 28.4757 18.5738 29.8605 19.5949 30.8815C20.6159 31.9026 22.0007 32.4762 23.4447 32.4762C24.8886 32.4762 26.2734 31.9026 27.2945 30.8815C28.3155 29.8605 28.8891 28.4757 28.8891 27.0317V24.2317M18.0002 27.0317C18.0002 28.4757 17.4266 29.8605 16.4056 30.8815C15.3845 31.9026 13.9997 32.4762 12.5558 32.4762C11.1118 32.4762 9.727 31.9026 8.70597 30.8815C7.68494 29.8605 7.11133 28.4757 7.11133 27.0317V24.2317" stroke="white" stroke-width="2" stroke-linecap="round" stroke-linejoin="round"></path>
  <path d="M26.5551 24.6985C27.9991 24.6985 29.3839 24.1248 30.4049 23.1038C31.426 22.0828 31.9996 20.698 31.9996 19.254C31.9996 17.8101 31.426 16.4252 30.4049 15.4042C29.3839 14.3832 27.9991 13.8096 26.5551 13.8096H25.7773" stroke="white" stroke-width="2" stroke-linecap="round" stroke-linejoin="round"></path>
  <path d="M28.8889 14.2761V9.92052C28.8889 8.47656 28.3153 7.09175 27.2942 6.07072C26.2732 5.04968 24.8884 4.47607 23.4444 4.47607C22.0005 4.47607 20.6157 5.04968 19.5946 6.07072C18.5736 7.09175 18 8.47656 18 9.92052M9.44444 24.6983C8.00049 24.6983 6.61567 24.1247 5.59464 23.1037C4.57361 22.0826 4 20.6978 4 19.2539C4 17.8099 4.57361 16.4251 5.59464 15.404C6.61567 14.383 8.00049 13.8094 9.44444 13.8094H10.2222" stroke="white" stroke-width="2" stroke-linecap="round" stroke-linejoin="round"></path>
  <path d="M7.11133 14.2761V9.92052C7.11133 8.47656 7.68494 7.09175 8.70597 6.07072C9.727 5.04968 11.1118 4.47607 12.5558 4.47607C13.9997 4.47607 15.3845 5.04968 16.4056 6.07072C17.4266 7.09175 18.0002 8.47656 18.0002 9.92052V25.4761" stroke="white" stroke-width="2" stroke-linecap="round" stroke-linejoin="round"></path>
</svg>
