<?xml version="1.0" encoding="UTF-8"?>
<svg xmlns="http://www.w3.org/2000/svg" width="36" height="37" viewBox="0 0 36 37" fill="none">
  <path d="M13.043 23.4517C15.2383 23.1482 17.2905 23.382 18.874 24.313C19.0378 24.4094 19.181 24.5252 19.3066 24.6616L19.3096 24.6646C19.4163 24.7796 19.4976 24.914 19.5498 25.0591C19.602 25.204 19.6244 25.3574 19.6152 25.5103C19.6061 25.6632 19.5655 25.8133 19.4961 25.9517C19.4267 26.0901 19.3293 26.2146 19.209 26.3169L19.1738 26.3481C19.1179 26.4005 19.048 26.4398 18.9707 26.4604L19.3438 28.4204C19.532 28.3987 19.714 28.3735 19.8896 28.3462H19.8916C21.4822 28.0966 22.7697 27.2629 23.8271 26.4751L23.8281 26.4761L26.4717 24.5073C26.7755 24.2901 27.143 24.1724 27.5215 24.1724C27.8954 24.1724 28.2588 24.2873 28.5605 24.4995C29.0492 24.866 29.087 25.3335 28.877 25.6655C28.2585 26.6428 27.4422 27.7994 26.708 28.4702C25.982 29.1335 24.8391 29.7692 23.832 30.2485H23.8311C22.9424 30.6718 21.9516 30.9472 20.8965 31.1411L20.4404 31.2192C17.9751 31.6118 15.4019 31.5517 12.959 31.0562C11.4346 30.7468 9.88177 30.5881 8.32422 30.5874H7.94141C7.22012 30.5874 6.7783 30.5858 6.45898 30.5435C6.3109 30.5238 6.22921 30.4997 6.18555 30.4819C6.15009 30.4675 6.13939 30.4572 6.13281 30.4507L6.13086 30.4487L6.10449 30.4048C6.08816 30.3657 6.06452 30.2894 6.04492 30.146C6.00243 29.8346 6 29.4013 6 28.689V27.0767C6 26.681 6.00101 26.4603 6.01855 26.2954C6.03313 26.1587 6.054 26.128 6.06055 26.1167C6.07385 26.0938 6.09171 26.0648 6.18066 25.9995C6.29692 25.9141 6.46013 25.8176 6.77441 25.6372L6.77539 25.6382C8.62355 24.5783 10.8563 23.7539 13.043 23.4517ZM17.4512 5.87549C18.9047 4.50221 20.3648 4.2773 21.3545 4.61963C22.3136 4.95152 23.1171 5.91293 23.1172 7.57959C23.1172 8.34299 22.6691 9.26582 21.8203 10.2769C21.0969 11.1386 20.1716 11.9595 19.2695 12.6626L18.8848 12.9565C17.648 13.8814 17.3318 14.0757 16.7646 14.0757C16.1972 14.0757 15.8805 13.8813 14.6426 12.9556C13.625 12.1931 12.5344 11.2622 11.708 10.2778C10.8596 9.2671 10.4121 8.34376 10.4121 7.57959C10.4122 5.91293 11.2157 4.95152 12.1748 4.61963C13.1645 4.27736 14.6246 4.50226 16.0781 5.87549L16.7646 6.52393L17.4512 5.87549Z" stroke="white" stroke-width="2"></path>
</svg>
