<?xml version="1.0" encoding="UTF-8"?>
<svg xmlns="http://www.w3.org/2000/svg" width="28" height="23" viewBox="0 0 28 23" fill="none">
  <path d="M8.79104 11.1427C10.1715 11.1427 11.4954 10.5808 12.4715 9.58064C13.4476 8.58045 13.996 7.2239 13.996 5.80941C13.996 4.39492 13.4476 3.03837 12.4715 2.03817C11.4954 1.03798 10.1715 0.476074 8.79104 0.476074C7.41061 0.476074 6.08671 1.03798 5.11059 2.03817C4.13447 3.03837 3.5861 4.39492 3.5861 5.80941C3.5861 7.2239 4.13447 8.58045 5.11059 9.58064C6.08671 10.5808 7.41061 11.1427 8.79104 11.1427ZM20.5022 11.1427C21.5375 11.1427 22.5304 10.7213 23.2625 9.97117C23.9946 9.22102 24.4059 8.20361 24.4059 7.14274C24.4059 6.08188 23.9946 5.06446 23.2625 4.31431C22.5304 3.56417 21.5375 3.14274 20.5022 3.14274C19.4668 3.14274 18.4739 3.56417 17.7418 4.31431C17.0097 5.06446 16.5985 6.08188 16.5985 7.14274C16.5985 8.20361 17.0097 9.22102 17.7418 9.97117C18.4739 10.7213 19.4668 11.1427 20.5022 11.1427ZM2.77283 13.1427C2.12575 13.1427 1.50517 13.4061 1.04761 13.875C0.590059 14.3438 0.333008 14.9797 0.333008 15.6427V16.4761C0.333008 16.4761 0.333008 22.4761 8.79104 22.4761C17.2491 22.4761 17.2491 16.4761 17.2491 16.4761V15.6427C17.2491 14.9797 16.992 14.3438 16.5345 13.875C16.0769 13.4061 15.4563 13.1427 14.8093 13.1427H2.77283ZM17.037 20.5354C17.9322 20.9074 19.0663 21.1427 20.5015 21.1427C27.333 21.1427 27.333 15.8094 27.333 15.8094V15.6427C27.333 14.9798 27.076 14.344 26.6186 13.8752C26.1612 13.4064 25.5408 13.1429 24.8938 13.1427H17.644C18.2289 13.8376 18.5502 14.7251 18.549 15.6427V16.5061L18.5484 16.5441L18.5445 16.6441C18.541 16.721 18.5334 16.8165 18.5217 16.9307C18.4891 17.2284 18.4369 17.5236 18.3655 17.8141C18.1189 18.8085 17.6657 19.7368 17.037 20.5354Z" fill="#4B234B"></path>
</svg>
